<svg width="1440" height="879" viewBox="0 0 1440 879" fill="none" xmlns="http://www.w3.org/2000/svg">
<path fill-rule="evenodd" clip-rule="evenodd" d="M133.572 0.512287H-12.4869V146.343H118.44L133.572 131.235V0.512287ZM149.107 146.343L134.17 131.43V0.512287H280.229V146.343H149.107ZM134.17 161.632L148.884 146.941H280.229V292.772H134.17V161.632ZM118.663 146.941L133.572 161.827V292.772H-12.4869V146.941H118.663ZM-13 0V146.429V146.856V292.857V293.285V439.286V439.713V585.715V586.142V732.144V732.571V879H133.657H134.085H280.314H280.742H426.972H427.399H573.629H574.056H720.286H720.714H866.943H867.371H1013.6H1014.03H1160.26H1160.69H1306.91H1307.34H1454L1454 732.571V586.142V585.715V439.286V293.285V146.856V146.429V0H1307.34H1306.92H1160.69H1160.26H1014.03H1013.6H867.371H866.943H720.714H720.286H574.056H573.629H427.399H426.972H280.742H280.314H134.085H133.657H-13ZM280.827 0.512287H426.886V146.343H280.827V0.512287ZM573.543 0.512287H427.485V146.343H573.543V0.512287ZM574.142 0.512287H720.201V146.343H574.142V0.512287ZM866.858 0.512287H720.799V146.343H866.858V0.512287ZM867.456 0.512287H1013.51V146.343H867.456V0.512287ZM1160.17 0.512287H1014.11V146.343H1160.17V0.512287ZM1160.77 0.512287H1306.83V146.343H1160.77V0.512287ZM1453.49 0.512287H1307.43V146.343H1453.49V0.512287ZM280.827 146.941H426.886V292.772H280.827V146.941ZM573.543 146.941H427.485V292.772H558.852L573.543 278.104V146.941ZM588.598 292.772L574.142 278.339V146.941H720.201V292.772H588.598ZM574.142 308.501L589.247 293.42L589.197 293.37H720.201V439.201H574.142V308.501ZM558.254 293.37L558.203 293.42L573.543 308.736V439.201H427.485V293.37H558.254ZM866.858 146.941H720.799V292.772H866.858V146.941ZM867.456 146.941H1013.51V292.772H867.456V146.941ZM1160.17 146.941H1014.11V292.772H1160.17V146.941ZM1160.77 146.941H1306.83V252.314L1306.58 252.562L1266.31 292.772H1160.77V146.941ZM1265.71 293.37H1160.77V424.834L1161.26 424.344L1176.14 439.201H1306.83V334.526L1306.58 334.278L1266.06 293.815L1265.66 293.42L1265.71 293.37ZM1306.83 333.734L1266.45 293.42L1266.5 293.37H1291.51L1291.46 293.42L1306.83 308.769V333.734ZM1307.43 334.224V439.201H1453.49V293.37H1348.25L1348.3 293.42L1347.9 293.815L1307.43 334.224ZM1347.45 293.37L1347.5 293.42L1307.43 333.433V308.468L1322.5 293.42L1322.45 293.37H1347.45ZM1347.65 292.772H1453.49V146.941H1307.43V252.616L1347.65 292.772ZM1307.43 253.407L1346.85 292.772H1321.85L1307.43 278.372V253.407ZM1306.83 253.105L1267.1 292.772H1292.1L1306.83 278.071V253.105ZM1160.77 454.849L1161.26 455.339L1176.78 439.842L1176.74 439.799H1306.83V585.63H1160.77V454.849ZM1145.78 439.799L1145.74 439.842L1160.17 454.252V585.63H1014.11V439.799H1145.78ZM1160.17 425.432L1146.38 439.201H1014.11V293.37H1160.17V425.432ZM-12.4869 293.37H133.572V439.201H-12.4869V293.37ZM280.229 293.37H134.17V439.201H280.229V293.37ZM280.827 293.37H426.886V439.201H280.827V293.37ZM866.858 293.37H720.799V439.201H866.858V293.37ZM867.456 293.37H1013.51V439.201H867.456V293.37ZM-12.4869 439.799H133.572V585.63H-12.4869V439.799ZM280.229 439.799H134.17V585.63H239.872L239.682 585.44L240.079 585.044L280.229 544.957V439.799ZM280.229 545.748L240.475 585.44L240.665 585.63H265.669L265.479 585.44L280.229 570.713V545.748ZM280.827 570.116V545.151L281 544.978L321.526 585.44L321.336 585.63H296.332L296.522 585.44L281.001 569.943L280.827 570.116ZM280.827 600.765L281.001 600.938L295.733 586.228H320.737L281 625.903L280.827 625.73V600.765ZM266.268 586.228L280.229 600.167V625.132L241.264 586.228H266.268ZM240.471 586.228H134.17V732.059H280.229V625.924L240.471 586.228ZM280.827 626.521V732.059H426.886V586.228H321.53L281.397 626.298L281 626.694L280.827 626.521ZM322.129 585.63H426.886V439.799H280.827V544.359L281 544.186L281.397 544.582L321.922 585.044L322.319 585.44L322.129 585.63ZM573.543 439.799H427.485V585.63H573.543V439.799ZM574.142 439.799H720.201V585.63H574.142V439.799ZM866.858 439.799H720.799V585.63H866.858V439.799ZM867.456 439.799H1013.51V585.63H867.456V439.799ZM1453.49 439.799H1307.43V585.63H1453.49V439.799ZM-12.4869 586.228H133.572V732.059H-12.4869V586.228ZM573.543 586.228H427.485V732.059H573.543V586.228ZM574.142 586.228H720.201V732.059H574.142V586.228ZM866.858 586.228H720.799V732.059H866.858V586.228ZM867.456 586.228H1013.51V732.059H867.456V586.228ZM1160.17 586.228H1014.11V732.059H1160.17V586.228ZM1160.77 586.228H1306.83V732.059H1160.77V586.228ZM1453.49 586.228H1307.43V732.059H1453.49V586.228ZM-12.4869 732.657H133.572V878.488H-12.4869V732.657ZM280.229 732.657H134.17V878.488H280.229V732.657ZM280.827 732.657H426.886V878.488H280.827V732.657ZM573.543 732.657H427.485V878.488H573.543V732.657ZM574.142 732.657H720.201V878.488H574.142V732.657ZM866.858 732.657H720.799V878.488H866.858V732.657ZM867.456 732.657H1013.51V878.488H867.456V732.657ZM1160.17 732.657H1014.11V878.488H1160.17V732.657ZM1160.77 732.657H1306.83V878.488H1160.77V732.657ZM1453.49 732.657H1307.43V878.488H1453.49V732.657Z" fill="url(#paint0_radial_87_15490)" fill-opacity="0.6"/>
<defs>
<radialGradient id="paint0_radial_87_15490" cx="0" cy="0" r="1" gradientUnits="userSpaceOnUse" gradientTransform="translate(720.5 -493.359) rotate(90) scale(1261.61 2105.55)">
<stop stop-color="#A7FFBC"/>
<stop offset="1" stop-opacity="0.67"/>
</radialGradient>
</defs>
</svg>
