<svg width="17" height="16" viewBox="0 0 17 16" fill="none" xmlns="http://www.w3.org/2000/svg">
<path d="M3.78255 2.16555C3.78233 2.60758 3.60652 3.03142 3.2938 3.34382C2.98109 3.65623 2.55708 3.83161 2.11505 3.83139C1.67302 3.83117 1.24919 3.65536 0.936779 3.34264C0.624379 3.02993 0.448989 2.60591 0.449219 2.16389C0.449439 1.72186 0.625239 1.29802 0.937959 0.985617C1.25068 0.673217 1.67469 0.497827 2.11672 0.498047C2.55874 0.498267 2.98258 0.674077 3.29498 0.986797C3.60739 1.29952 3.78277 1.72353 3.78255 2.16555ZM3.83255 5.06555H0.499219V15.4989H3.83255V5.06555ZM9.09922 5.06555H5.78255V15.4989H9.06592V10.0239C9.06592 6.97389 13.0409 6.69055 13.0409 10.0239V15.4989H16.3325V8.89053C16.3325 3.74889 10.4492 3.94055 9.06592 6.46555L9.09922 5.06555Z" fill="black"/>
</svg>
