<svg width="14" height="14" viewBox="0 0 14 14" fill="none" xmlns="http://www.w3.org/2000/svg">
<g clip-path="url(#clip0_295_240)">
<path d="M-0.312367 6.99953C-0.312375 6.76481 -0.235848 6.57093 -0.0827177 6.4178C0.0711014 6.26398 0.265398 6.18704 0.500126 6.18704L6.18762 6.18704L6.18762 0.499543C6.18762 0.264823 6.26454 0.0709058 6.41837 -0.0822072C6.57148 -0.236036 6.7654 -0.312957 7.00012 -0.312957C7.23484 -0.312949 7.42912 -0.236038 7.58296 -0.0822033C7.73606 0.0709036 7.81262 0.264823 7.81262 0.499543L7.81262 6.18704L13.5001 6.18704C13.7348 6.18705 13.9288 6.26397 14.0818 6.41776C14.2357 6.57092 14.3126 6.76485 14.3126 6.99956C14.3126 7.23429 14.2357 7.42856 14.0819 7.58239C13.9288 7.7355 13.7349 7.81206 13.5001 7.81206L7.81262 7.81204L7.81265 13.4996C7.81264 13.7343 7.73608 13.9285 7.58295 14.0824C7.42913 14.2355 7.23487 14.3121 7.00016 14.3121C6.76544 14.3121 6.57148 14.2355 6.41835 14.0823C6.26453 13.9285 6.18764 13.7343 6.18763 13.4995L6.18762 7.81204L0.500133 7.81203C0.265413 7.81203 0.0710938 7.73552 -0.0826876 7.58235C-0.235855 7.42857 -0.312359 7.23425 -0.312367 6.99953Z" fill="#00473C"/>
</g>
<defs>
<clipPath id="clip0_295_240">
<rect width="13" height="13" fill="white" transform="translate(0.5 0.5)"/>
</clipPath>
</defs>
</svg>
