<svg width="11" height="10" viewBox="0 0 11 10" fill="none" xmlns="http://www.w3.org/2000/svg">
<path d="M4.83426 1.04894C5.04381 0.404019 5.95619 0.404018 6.16574 1.04894L6.80218 3.0077C6.89589 3.29612 7.16466 3.49139 7.46792 3.49139H9.52749C10.2056 3.49139 10.4875 4.35912 9.93894 4.7577L8.27271 5.96829C8.02737 6.14654 7.92471 6.46249 8.01842 6.75091L8.65486 8.70967C8.86441 9.35459 8.12628 9.89088 7.57768 9.4923L5.91145 8.28172C5.66611 8.10347 5.33389 8.10346 5.08855 8.28172L3.42233 9.4923C2.87373 9.89088 2.13559 9.35459 2.34514 8.70967L2.98158 6.75091C3.07529 6.46249 2.97263 6.14654 2.72729 5.96829L1.06106 4.7577C0.512462 4.35912 0.794405 3.49139 1.47251 3.49139H3.53208C3.83534 3.49139 4.10411 3.29612 4.19782 3.0077L4.83426 1.04894Z" fill="#A7FFBC" fill-opacity="0.16"/>
</svg>
