<svg width="18" height="18" viewBox="0 0 18 18" fill="none" xmlns="http://www.w3.org/2000/svg">
<path d="M9.00128 0.666016C11.2655 0.666016 11.548 0.674356 12.4363 0.716016C13.3238 0.757686 13.928 0.896856 14.4597 1.10352C15.0097 1.31519 15.473 1.60186 15.9363 2.06436C16.3601 2.48094 16.688 2.98485 16.8972 3.54102C17.103 4.07186 17.243 4.67686 17.2847 5.56436C17.3238 6.45269 17.3347 6.73519 17.3347 8.99933C17.3347 11.2635 17.3263 11.546 17.2847 12.4343C17.243 13.3218 17.103 13.926 16.8972 14.4577C16.6886 15.0141 16.3606 15.5182 15.9363 15.9343C15.5196 16.3579 15.0158 16.6858 14.4597 16.8952C13.9288 17.101 13.3238 17.241 12.4363 17.2827C11.548 17.3218 11.2655 17.3327 9.00128 17.3327C6.73714 17.3327 6.45464 17.3243 5.56631 17.2827C4.67881 17.241 4.07464 17.101 3.54297 16.8952C2.98658 16.6864 2.48258 16.3584 2.06631 15.9343C1.64248 15.5178 1.31458 15.0139 1.10547 14.4577C0.898809 13.9268 0.759639 13.3218 0.717969 12.4343C0.678809 11.546 0.667969 11.2635 0.667969 8.99933C0.667969 6.73519 0.676309 6.45269 0.717969 5.56436C0.759639 4.67602 0.898809 4.07269 1.10547 3.54102C1.314 2.98451 1.64198 2.48046 2.06631 2.06436C2.4827 1.64038 2.98666 1.31246 3.54297 1.10352C4.07464 0.896856 4.67797 0.757686 5.56631 0.716016C6.45464 0.676856 6.73714 0.666016 9.00128 0.666016ZM9.00128 4.83269C7.89624 4.83269 6.83643 5.27168 6.05503 6.05308C5.27363 6.83448 4.83464 7.89429 4.83464 8.99933C4.83464 10.1044 5.27363 11.1642 6.05503 11.9456C6.83643 12.727 7.89624 13.166 9.00128 13.166C10.1064 13.166 11.1662 12.727 11.9476 11.9456C12.729 11.1642 13.168 10.1044 13.168 8.99933C13.168 7.89429 12.729 6.83448 11.9476 6.05308C11.1662 5.27168 10.1064 4.83269 9.00128 4.83269ZM14.418 4.62436C14.418 4.34809 14.3082 4.08314 14.1129 3.88779C13.9175 3.69244 13.6526 3.58269 13.3763 3.58269C13.1001 3.58269 12.8351 3.69244 12.6398 3.88779C12.4444 4.08314 12.3347 4.34809 12.3347 4.62436C12.3347 4.90062 12.4444 5.16557 12.6398 5.36093C12.8351 5.55628 13.1001 5.66602 13.3763 5.66602C13.6526 5.66602 13.9175 5.55628 14.1129 5.36093C14.3082 5.16557 14.418 4.90062 14.418 4.62436ZM9.00128 6.49936C9.66438 6.49936 10.3003 6.76275 10.7691 7.23159C11.2379 7.70043 11.5013 8.33631 11.5013 8.99933C11.5013 9.66243 11.2379 10.2983 10.7691 10.7671C10.3003 11.2359 9.66438 11.4993 9.00128 11.4993C8.33826 11.4993 7.70238 11.2359 7.23354 10.7671C6.7647 10.2983 6.50131 9.66243 6.50131 8.99933C6.50131 8.33631 6.7647 7.70043 7.23354 7.23159C7.70238 6.76275 8.33826 6.49936 9.00128 6.49936Z" fill="black"/>
</svg>
