<svg width="17" height="14" viewBox="0 0 17 14" fill="none" xmlns="http://www.w3.org/2000/svg">
<path d="M17.4663 1.71376C16.8301 1.99517 16.1554 2.17999 15.4646 2.26209C16.1927 1.82662 16.7377 1.14127 16.9979 0.333761C16.3146 0.740431 15.5654 1.02543 14.7846 1.17959C14.2601 0.618412 13.5649 0.246231 12.8071 0.120911C12.0492 -0.00439863 11.2712 0.124171 10.594 0.486641C9.91675 0.849111 9.37825 1.42516 9.06225 2.12525C8.74617 2.82534 8.67026 3.61024 8.84631 4.35793C7.46056 4.28847 6.10492 3.92836 4.86738 3.30098C3.62984 2.6736 2.53808 1.79297 1.66297 0.716261C1.35321 1.2483 1.19043 1.85312 1.19131 2.46876C1.19131 3.67709 1.80631 4.74459 2.74131 5.36959C2.18798 5.35217 1.64683 5.20274 1.16297 4.93376V4.97709C1.16314 5.78184 1.44161 6.56177 1.95118 7.1846C2.46074 7.8075 3.17004 8.235 3.95881 8.3946C3.44515 8.5338 2.90656 8.5543 2.38381 8.4546C2.60619 9.1473 3.03964 9.7531 3.62347 10.1872C4.20729 10.6213 4.91225 10.8619 5.63964 10.8754C4.91671 11.4432 4.08895 11.8629 3.20371 12.1106C2.31846 12.3582 1.39308 12.429 0.480469 12.3188C2.07355 13.3433 3.92805 13.8872 5.82214 13.8854C12.2329 13.8854 15.7388 8.5746 15.7388 3.96876C15.7388 3.81876 15.7346 3.66709 15.7279 3.51876C16.4103 3.02557 16.9993 2.41461 17.4671 1.71459L17.4663 1.71376Z" fill="black"/>
</svg>
